<svg width="29" height="34" viewBox="0 0 29 34" fill="none" xmlns="http://www.w3.org/2000/svg">
<path d="M14.2754 0H14.3472L28.6129 8.38153C28.6893 13.9253 28.6387 19.6783 28.618 25.2321C23.9116 28.0246 19.0607 30.8949 14.3168 33.61C11.5952 32.0782 8.84214 30.4096 6.13617 28.8317L2.37019 26.6224C1.61483 26.18 0.726651 25.6883 0 25.2145L0.00125223 8.38098L14.2754 0Z" fill="white"/>
<path d="M14.3365 2.78906C14.8241 3.05804 15.3291 3.35729 15.8073 3.6436C19.2513 5.70578 22.7558 7.69736 26.1752 9.79891L26.1761 23.8377C25.8262 24.0131 25.2336 24.3847 24.8791 24.5928L22.2581 26.1384L14.3469 30.8232C10.3909 28.5906 6.44947 26.0895 2.48396 23.8326L2.47876 9.799C6.41777 7.43932 10.3704 5.10264 14.3365 2.78906Z" fill="black"/>
<path d="M20.4333 12.7992C20.3954 12.3588 20.4372 11.9035 20.6625 11.5153C20.8898 11.1297 21.263 10.8523 21.6974 10.7459C22.1589 10.6304 22.6474 10.7074 23.0509 10.9593C24.906 12.1088 23.258 15.2169 21.0144 13.7124C20.0121 14.3246 19.0055 14.9301 17.9948 15.5287L17.9944 19.0677L17.3763 19.4443L14.9338 20.8969C14.9163 21.972 14.9315 23.1027 14.9312 24.1818C15.2976 24.3734 15.6984 24.6441 15.8915 25.0195C16.3318 25.8753 16.0934 26.9119 15.2231 27.3667C14.8069 27.5884 14.3183 27.6304 13.8704 27.4833C12.7378 27.1139 12.3254 25.7935 13.0372 24.8195C13.2398 24.5421 13.5541 24.3532 13.8605 24.2052L13.8618 20.9119C12.8907 20.2918 11.802 19.6601 10.8103 19.0657C10.7731 18.0211 10.7923 16.5876 10.8233 15.5384C9.82882 14.9504 8.76017 14.3402 7.79697 13.7138C7.16315 14.1413 6.39723 14.2785 5.72966 13.8359C5.33627 13.5697 5.06737 13.1553 4.98422 12.6874C4.90346 12.2356 5.00594 11.7703 5.26888 11.3943C5.58795 10.9432 5.98298 10.7812 6.50413 10.696C6.56335 10.6894 6.62286 10.6865 6.68237 10.6874C7.93137 10.7103 8.39735 11.674 8.37024 12.7913C9.35823 13.3511 10.4025 14.0041 11.3809 14.5932C12.368 14.0223 13.4152 13.3507 14.406 12.8188C15.1762 13.2067 16.606 14.1189 17.4061 14.5917C18.4091 14.0277 19.4224 13.3789 20.4333 12.7992Z" fill="white"/>
<path d="M14.2672 14.095C14.4873 14.1124 15.9914 15.0247 16.2649 15.184L14.3928 16.2634C14.1147 16.2573 12.7005 15.3565 12.3928 15.1711C13.024 14.8229 13.6489 14.4641 14.2672 14.095Z" fill="black"/>
<path d="M16.7991 16.2634C16.9195 16.4561 16.8779 18.1036 16.878 18.4286C16.3162 18.7058 15.5375 19.1914 14.9695 19.516L14.9399 19.504C14.8322 19.3681 14.8829 17.6773 14.8853 17.3702L16.7991 16.2634Z" fill="black"/>
<path d="M11.9331 16.2634C12.55 16.5863 13.1858 17.0616 13.7837 17.3593C13.7879 18.0782 13.7875 18.7971 13.7827 19.516C13.4882 19.3995 12.2621 18.6159 11.9296 18.4097C11.9266 17.6942 11.9277 16.9789 11.9331 16.2634Z" fill="black"/>
<path d="M14.2152 25.2609C14.5007 25.1905 14.7836 25.3913 14.855 25.7149C14.9264 26.0386 14.7606 26.3687 14.4801 26.4615C14.2898 26.5244 14.0845 26.4637 13.9448 26.303C13.8053 26.1423 13.7534 25.9074 13.8097 25.6903C13.866 25.4733 14.0215 25.3085 14.2152 25.2609Z" fill="black"/>
<path d="M21.9707 11.7827C22.2531 11.7215 22.5282 11.9229 22.5976 12.2416C22.667 12.5604 22.5067 12.8857 22.2322 12.983C22.0402 13.051 21.831 12.9921 21.6887 12.8298C21.5465 12.6676 21.4944 12.4287 21.5536 12.2091C21.6126 11.9895 21.7732 11.8253 21.9707 11.7827Z" fill="black"/>
<path d="M6.47548 11.7842C6.76947 11.716 7.05609 11.9337 7.11485 12.27C7.17361 12.6062 6.98215 12.933 6.68782 12.9991C6.3947 13.0648 6.11036 12.8473 6.05186 12.5127C5.99336 12.1779 6.18281 11.8522 6.47548 11.7842Z" fill="black"/>
<path d="M14.3196 6.5061C14.5414 6.56744 15.7615 7.31524 16.0183 7.46296L20.6006 10.0874C19.8489 10.7133 19.6423 10.9978 19.4277 11.9271C17.7548 10.9395 16.0307 9.97116 14.3452 8.99915C13.9121 9.20423 13.2362 9.63464 12.7995 9.87906C11.6076 10.5463 10.4269 11.2741 9.22263 11.9207C9.08127 11.0289 8.7037 10.6407 8.05493 10.0832C8.69546 9.78108 9.70959 9.15503 10.3624 8.77744L14.3196 6.5061Z" fill="white"/>
<path d="M21.0241 14.8694C21.8762 15.1818 22.393 15.1506 23.2324 14.8775L23.2302 22.1195L18.0662 25.1673C17.751 25.3538 17.4328 25.5351 17.1118 25.7113C17.0397 24.8974 16.6942 24.2922 16.1077 23.7432C17.5449 22.917 19.6931 21.7351 21.0341 20.833C20.9934 18.8729 21.0204 16.8324 21.0241 14.8694Z" fill="white"/>
<path d="M5.45156 14.8694C6.24585 15.202 6.84898 15.1352 7.63546 14.8812L7.63517 20.8368C9.17766 21.8072 10.9588 22.8015 12.5468 23.7306C12.1426 24.1367 11.9959 24.2725 11.7582 24.7996C11.6438 25.1696 11.6007 25.3276 11.5723 25.7113C11.1034 25.4076 10.5396 25.1181 10.0529 24.8216C8.54214 23.9012 6.95579 23.0444 5.45706 22.1124C5.40105 19.7797 5.42245 17.2036 5.45156 14.8694Z" fill="white"/>
</svg>
